<svg version="1.2" xmlns="http://www.w3.org/2000/svg" viewBox="0 0 1125 2436" width="1125" height="2436">
	<style>
		.s0 { fill: #ffffff } 
		.s1 { opacity: .15;fill: #92d0ff } 
		.s2 { fill: #92d0ff } 
	</style>
	<g id="Слой 1">
		<g id="&lt;Group&gt;">
			<path id="&lt;Path&gt;" class="s0" d="m192.03 2099.85c8.67 40.14 13.41 84.72-2.53 126.9 11.31 37.33 21.3 74.99 29.53 113.1 6.58 30.49 10.9 63.54 5.62 96.15h210.27c-10.46-47.71-13.26-98.14-6.68-147.05 22.06-163.86 140.48-295.97 271.48-313.82 59.09-8.05 124.62 2.4 172.48-42.03 54.48-50.59 60.94-148.09 65.22-233.25 5.93-118.3 18.28-241.02 69.32-340.54 27.97-54.54 70.68-99.82 118.26-123.5v-704.98c-17.45-0.59-34.88-2.73-51.99-6.17-82.63-16.65-159.82-63.56-216.06-131.31-56.24-67.76-91.18-155.94-97.8-246.83-3.55-48.7 0.78-97.74-0.27-146.52h-598.06c63.84 82.5 84.37 197.82 50.31 296.73q-3.57 10.33-7.79 20.4c57.9 81.63 75.48 191.67 42.79 286.6-39.7 115.28-144.95 204.7-161.33 325.52-8.33 61.4 7.66 125.32-8.59 185.11-6.01 22.11-40.61 80.87-76.21 107.84v353.44q10.05 23.07 20.09 46.14c68.07 156.3 136.29 313.06 171.94 478.07z"/>
			<path id="&lt;Path&gt;" class="s0" d="m76.21 1114.36c16.25-59.79 0.26-123.71 8.59-185.11 16.38-120.82 121.63-210.24 161.33-325.52 32.69-94.93 15.11-204.97-42.79-286.6-44.18 105.67-138.14 191.52-153.54 305.12-8.33 61.4 7.66 125.32-8.59 185.11-3.96 14.56-20.33 45.04-41.21 71.85v342.99c35.6-26.97 70.2-85.73 76.21-107.84z"/>
			<path id="&lt;Path&gt;" class="s1" d="m76.21 1114.36c16.25-59.79 0.26-123.71 8.59-185.11 16.38-120.82 121.63-210.24 161.33-325.52 32.69-94.93 15.11-204.97-42.79-286.6-44.18 105.67-138.14 191.52-153.54 305.12-8.33 61.4 7.66 125.32-8.59 185.11-3.96 14.56-20.33 45.04-41.21 71.85v342.99c35.6-26.97 70.2-85.73 76.21-107.84z"/>
			<path id="&lt;Path&gt;" class="s2" d="m49.8 622.25c15.4-113.6 109.36-199.45 153.54-305.13q4.22-10.06 7.79-20.39c34.06-98.91 13.53-214.23-50.31-296.73h-160.82v879.21c20.88-26.81 37.25-57.29 41.21-71.85 16.25-59.79 0.26-123.71 8.59-185.11z"/>
			<path id="&lt;Path&gt;" class="s0" d="m1006.74 1359.31c-51.04 99.52-63.39 222.24-69.32 340.54-4.28 85.16-10.74 182.66-65.22 233.25-47.86 44.43-113.39 33.98-172.48 42.03-131 17.85-249.42 149.96-271.48 313.82-6.58 48.91-3.78 99.34 6.68 147.05h37.29c-14.68-42.72-19.55-88.97-11.97-133.63 22.06-129.9 140.48-234.63 271.48-248.79 59.09-6.38 124.62 1.91 172.48-33.32 54.48-40.1 60.94-117.39 65.22-184.91 5.93-93.78 18.28-191.07 69.32-269.97 21.52-33.27 51.78-62.19 86.26-82.32v-247.25c-47.58 23.68-90.29 68.96-118.26 123.5z"/>
			<path id="&lt;Path&gt;" class="s1" d="m1006.74 1359.31c-51.04 99.52-63.39 222.24-69.32 340.54-4.28 85.16-10.74 182.66-65.22 233.25-47.86 44.43-113.39 33.98-172.48 42.03-131 17.85-249.42 149.96-271.48 313.82-6.58 48.91-3.78 99.34 6.68 147.05h37.29c-14.68-42.72-19.55-88.97-11.97-133.63 22.06-129.9 140.48-234.63 271.48-248.79 59.09-6.38 124.62 1.91 172.48-33.32 54.48-40.1 60.94-117.39 65.22-184.91 5.93-93.78 18.28-191.07 69.32-269.97 21.52-33.27 51.78-62.19 86.26-82.32v-247.25c-47.58 23.68-90.29 68.96-118.26 123.5z"/>
			<path id="&lt;Path&gt;" class="s2" d="m1038.74 1565.38c-51.04 78.9-63.39 176.19-69.32 269.97-4.28 67.52-10.74 144.81-65.22 184.91-47.86 35.23-113.39 26.94-172.48 33.32-131 14.16-249.42 118.89-271.48 248.79-7.58 44.66-2.71 90.91 11.97 133.63h652.79v-952.94c-34.48 20.13-64.74 49.05-86.26 82.32z"/>
			<path id="&lt;Path&gt;" class="s0" d="m759.15 146.52c6.62 90.89 41.56 179.07 97.8 246.83 56.24 67.75 133.43 114.66 216.06 131.31 17.11 3.44 34.54 5.58 51.99 6.17v-96.67c-79.98-16.44-154.41-58.98-209.05-119.66-56.24-62.46-91.18-143.74-97.8-227.52-2.29-28.91-1.31-57.95-0.6-86.98h-58.67c1.05 48.78-3.28 97.82 0.27 146.52z"/>
			<path id="&lt;Path&gt;" class="s1" d="m759.15 146.52c6.62 90.89 41.56 179.07 97.8 246.83 56.24 67.75 133.43 114.66 216.06 131.31 17.11 3.44 34.54 5.58 51.99 6.17v-96.67c-79.98-16.44-154.41-58.98-209.05-119.66-56.24-62.46-91.18-143.74-97.8-227.52-2.29-28.91-1.31-57.95-0.6-86.98h-58.67c1.05 48.78-3.28 97.82 0.27 146.52z"/>
			<path id="&lt;Path&gt;" class="s2" d="m818.15 86.98c6.62 83.78 41.56 165.06 97.8 227.52 54.64 60.68 129.07 103.22 209.05 119.66v-434.16h-307.45c-0.71 29.03-1.69 58.07 0.6 86.98z"/>
			<path id="&lt;Path&gt;" class="s0" d="m219.03 2339.85c-8.23-38.11-18.22-75.77-29.53-113.1-9.7 25.69-27.06 50.48-55.89 72.84-35.85 27.8-83.39 46.78-133.61 61.51v74.9h224.65c5.28-32.61 0.96-65.66-5.62-96.15z"/>
			<path id="&lt;Path&gt;" class="s1" d="m219.03 2339.85c-8.23-38.11-18.22-75.77-29.53-113.1-9.7 25.69-27.06 50.48-55.89 72.84-35.85 27.8-83.39 46.78-133.61 61.51v74.9h224.65c5.28-32.61 0.96-65.66-5.62-96.15z"/>
			<path id="&lt;Path&gt;" class="s2" d="m189.5 2226.75c15.94-42.18 11.2-86.76 2.53-126.9-35.65-165.01-103.87-321.77-171.94-478.07q-10.04-23.07-20.09-46.14v785.46c50.22-14.73 97.76-33.71 133.61-61.51 28.83-22.36 46.19-47.15 55.89-72.84z"/>
		</g>
	</g>
</svg>